<svg xmlns="http://www.w3.org/2000/svg" width="400" height="400" viewBox="0 0 0 0 400 400"><path fill-rule="evenodd" d="M108.729 54.805c-5.71 2.194-11.955 8.52-14.118 14.302-1.624 4.34-1.642 5.176-1.642 74.153v69.765l2.839 3.644c1.561 2.004 3.064 3.643 3.339 3.644.275 0 8.368-16.788 17.985-37.305 9.616-20.518 23.953-51.096 31.86-67.952l14.376-30.648-6.753-9.725c-5.4-7.776-7.326-9.957-9.614-10.883-1.573-.636-6.376-2.812-10.673-4.835-13.864-6.527-19.303-7.347-27.599-4.16m50.646 15.148c0 .805 5.719 8.953 6.284 8.953.473 0 2.31-4.115 2.31-5.174 0-.335-4.155-2.474-6.636-3.417-1.077-.41-1.958-.573-1.958-.362m11.316 9.759c-1.098 2.167-2.336 3.73-2.75 3.474-.414-.256-.753-.093-.753.362 0 .455.439.84.976.857.845.025 17.214 23.428 37.797 54.035 3.382 5.029 6.484 9.048 6.895 8.931.886-.252 22.981-40.275 23.041-41.735.022-.552-1.454-1.652-3.28-2.444-1.826-.792-6.836-3.103-11.133-5.136-4.296-2.033-10.449-4.85-13.671-6.259-3.223-1.41-9.375-4.223-13.672-6.251-8.103-3.825-14.587-6.798-18.93-8.68l-2.524-1.093-1.996 3.939m-12.272 26.343c-4.15 8.916-16.04 34.316-26.421 56.445-10.382 22.129-21.172 45.145-23.978 51.147-4.659 9.963-5.009 11.063-4.022 12.651 1.999 3.217 39.047 47.921 39.714 47.921.363 0 5.225-8.35 10.805-18.555 21.845-39.953 52.372-96.07 54.026-99.314l1.742-3.415-2.267-3.225c-1.247-1.774-10.988-15.97-21.647-31.546-10.659-15.576-19.61-28.32-19.893-28.32-.282 0-3.908 7.295-8.059 16.211m70.11 23.633c-6.747 12.46-12.586 22.656-12.976 22.656-.39 0-.709.351-.709.781 0 .43.336.693.746.586.739-.193 6.105 7.476 47.15 67.383 11.628 16.972 22.097 32.182 23.264 33.799l2.122 2.94 19.218-35.319 19.219-35.32v-16.158c0-25.877.751-25.041-37.891-42.106-6.016-2.657-13.399-6.018-16.406-7.47-6.47-3.122-30.969-14.429-31.265-14.429-.113 0-5.725 10.196-12.472 22.657m-17.065 31.405c-1.776 3.094-12.76 23.256-49.917 91.63-7.702 14.174-14.418 26.034-14.924 26.356-.699.444-.694.587.021.597.517.006 8.044 8.713 16.725 19.347 8.682 10.635 16.654 20.283 17.717 21.44l1.932 2.103 8.687-4.356c4.777-2.396 19.936-9.72 33.686-16.276 13.75-6.556 31.174-14.947 38.721-18.648l13.721-6.728 3.696-6.638c2.033-3.651 4.033-6.639 4.443-6.639.411 0 .747-.372.747-.827 0-.455-.316-.633-.701-.394-.386.238-6.657-8.267-13.937-18.9-7.279-10.632-22.5-32.867-33.825-49.41-11.324-16.543-21.55-31.414-22.726-33.047l-2.136-2.97-1.93 3.36m97.226 68.818l-17.482 32.099 1.443 2.679c2.074 3.852 2.109 3.847 14.05-1.809 11.751-5.566 15.054-8.11 17.989-13.853l1.895-3.707-.207-23.753-.206-23.754-17.482 32.098m-215.658-2.567l.007 6.64 1.883-3.515c2.357-4.403 2.358-4.575.024-7.422l-1.921-2.344.007 6.641m5.91 5.61c-.618 1.426-2.215 4.958-3.548 7.849l-2.425 5.256v41.89c0 48.731-.136 47.613 6.65 54.858 5.246 5.601 3.084 8.212 21.864-26.401 8.509-15.683 16.638-30.537 18.064-33.008 1.425-2.47 2.279-4.492 1.898-4.492-.382 0-9.553-10.81-20.382-24.023-21.999-26.844-20.594-25.452-22.121-21.929m188.231 36.455c-.68 1.314-1.235 2.574-1.235 2.801 0 .333 3.491-.9 4.571-1.615.152-.1-.259-.945-.913-1.878l-1.188-1.697-1.235 2.389m-149.23 26.502c-3.409 6.331-11.231 20.735-17.383 32.009-12.601 23.093-12.128 21.832-8.446 22.523 7.855 1.474 12.413.261 28.511-7.588 8.379-4.085 19.98-9.667 25.781-12.404 5.801-2.737 10.812-5.19 11.135-5.45.609-.491-31.851-40.635-32.841-40.614-.307.007-3.348 5.193-6.757 11.524"/></svg>