<svg width="40" height="40" xmlns="http://www.w3.org/2000/svg"><path fill="none" d="M-1-1h42v42H-1z"/><g><path stroke="null" fill-rule="evenodd" d="M8.2 2.81c-.668.257-1.397.996-1.65 1.671-.19.507-.191.605-.191 8.66v8.147l.331.426c.183.234.358.425.39.426.032 0 .977-1.961 2.1-4.357l3.721-7.936 1.68-3.579-.79-1.136c-.63-.908-.855-1.163-1.122-1.27a36.906 36.906 0 0 1-1.247-.565C9.803 2.534 9.168 2.439 8.2 2.81m5.915 1.769c0 .094.668 1.045.734 1.045.055 0 .27-.48.27-.604 0-.039-.486-.289-.776-.399-.125-.048-.228-.067-.228-.042m1.321 1.14c-.128.253-.272.435-.32.405-.05-.03-.089-.01-.089.043s.052.098.114.1c.099.003 2.01 2.736 4.414 6.31.395.587.758 1.057.806 1.043.103-.03 2.683-4.703 2.69-4.874.003-.064-.17-.193-.383-.285a61.935 61.935 0 0 1-1.3-.6 72.912 72.912 0 0 0-1.596-.731 75.934 75.934 0 0 1-1.597-.73 82.87 82.87 0 0 0-2.21-1.014l-.296-.127-.233.46m-1.433 3.076c-.484 1.041-1.873 4.008-3.085 6.592a8312.769 8312.769 0 0 0-2.8 5.973c-.545 1.164-.586 1.292-.47 1.478.233.375 4.56 5.596 4.638 5.596.042 0 .61-.975 1.261-2.167 2.552-4.666 6.117-11.22 6.31-11.598l.203-.4-.264-.376c-.146-.207-1.284-1.865-2.528-3.684-1.245-1.819-2.29-3.307-2.324-3.307-.033 0-.456.852-.94 1.893m8.187 2.76c-.788 1.455-1.47 2.646-1.515 2.646-.046 0-.083.04-.083.091 0 .05.039.081.087.068.086-.022.713.874 5.506 7.87a652.61 652.61 0 0 0 2.717 3.947l.248.343 2.244-4.124 2.245-4.125v-1.887c0-3.022.087-2.925-4.425-4.918a82.69 82.69 0 0 1-1.916-.872c-.756-.365-3.617-1.685-3.652-1.685-.013 0-.668 1.19-1.456 2.646m-1.993 3.668c-.207.36-1.49 2.716-5.83 10.7-.899 1.656-1.683 3.04-1.742 3.079-.082.051-.081.068.002.07.06 0 .94 1.017 1.953 2.259a163.574 163.574 0 0 0 2.07 2.504l.225.245 1.014-.509a331.25 331.25 0 0 1 3.934-1.9c1.606-.766 3.641-1.746 4.522-2.178l1.603-.786.432-.775c.237-.426.47-.775.518-.775.048 0 .088-.044.088-.097 0-.053-.037-.074-.082-.046-.045.028-.778-.965-1.628-2.207l-3.95-5.77a638.837 638.837 0 0 0-2.654-3.86l-.25-.347-.225.393m11.355 8.036l-2.042 3.75.168.312c.243.45.247.45 1.641-.211 1.373-.65 1.758-.947 2.101-1.618l.221-.433-.024-2.774-.024-2.774-2.042 3.748m-25.185-.3v.776l.22-.41c.276-.515.276-.535.004-.867l-.225-.274.001.776m.69.655c-.072.166-.258.579-.414.916l-.283.614v4.892c0 5.691-.016 5.56.776 6.407.613.654.36.959 2.554-3.083a388.274 388.274 0 0 1 2.11-3.855c.166-.289.265-.525.22-.525-.044 0-1.115-1.262-2.38-2.805-2.569-3.135-2.404-2.973-2.583-2.561m21.983 4.257a1.8 1.8 0 0 0-.145.327c0 .04.408-.105.534-.188.018-.012-.03-.11-.106-.22l-.14-.198-.143.28M11.61 30.967c-.398.74-1.312 2.422-2.03 3.738-1.472 2.697-1.417 2.55-.987 2.63.918.173 1.45.031 3.33-.885.979-.477 2.333-1.13 3.011-1.449.677-.32 1.263-.606 1.3-.636.071-.058-3.72-4.746-3.835-4.744-.036.001-.391.607-.79 1.346"/></g></svg>
